HIERARCHY
ROOT Hips
{
	OFFSET 0.000000 0.000000 0.000000
	CHANNELS 6 Xposition Yposition Zposition Xrotation Yrotation Zrotation
	JOINT C_ctrl
	{
		OFFSET 0.000000 35.040482 -0.000011
		CHANNELS 3 Xrotation Yrotation Zrotation
		JOINT Bip01
		{
			OFFSET -41.537640 41.789009 -0.000007
			CHANNELS 3 Xrotation Yrotation Zrotation
			JOINT Bip01_Pelvis
			{
				OFFSET -2.462887 0.000000 0.000000
				CHANNELS 3 Xrotation Yrotation Zrotation
				JOINT BN_Tail_01
				{
					OFFSET -11.399368 7.351341 -0.000013
					CHANNELS 3 Xrotation Yrotation Zrotation
					JOINT BN_Tail_02
					{
						OFFSET -11.365196 -0.343025 0.000012
						CHANNELS 3 Xrotation Yrotation Zrotation
						JOINT BN_Tail_03
						{
							OFFSET -15.076256 -0.454979 0.000017
							CHANNELS 3 Xrotation Yrotation Zrotation
							JOINT BN_Tail_04
							{
								OFFSET -17.395691 -0.525002 0.000016
								CHANNELS 3 Xrotation Yrotation Zrotation
								JOINT BN_Tail_05
								{
									OFFSET -16.699837 -0.504005 0.000016
									CHANNELS 3 Xrotation Yrotation Zrotation
									End Site
									{
										OFFSET 0.503998 -16.699829 0.000067
									}
								}
							}
						}
					}
				}
				JOINT Bip01_Spine
				{
					OFFSET 8.297798 5.916809 -0.000020
					CHANNELS 3 Xrotation Yrotation Zrotation
					JOINT Bip01_R_Thigh
					{
						OFFSET -8.297779 -5.916794 10.541781
						CHANNELS 3 Xrotation Yrotation Zrotation
						JOINT Bip01_R_Calf
						{
							OFFSET 5.631542 -22.906792 0.862690
							CHANNELS 3 Xrotation Yrotation Zrotation
							JOINT Bip01_R_HorseLink
							{
								OFFSET -16.984341 -19.231926 -3.555767
								CHANNELS 3 Xrotation Yrotation Zrotation
								JOINT Bip01_R_Foot
								{
									OFFSET 4.290367 -24.783146 0.578056
									CHANNELS 3 Xrotation Yrotation Zrotation
									JOINT Bip01_R_Toe0
									{
										OFFSET 3.561211 -5.815116 0.760802
										CHANNELS 3 Xrotation Yrotation Zrotation
										JOINT Bip01_R_Toe0Nub
										{
											OFFSET 16.135469 0.002017 1.534789
											CHANNELS 3 Xrotation Yrotation Zrotation
											End Site
											{
												OFFSET -0.000002 16.208284 -0.000056
											}
										}
									}
								}
							}
						}
					}
					JOINT Bip01_L_Thigh
					{
						OFFSET -8.297813 -5.916832 -10.541739
						CHANNELS 3 Xrotation Yrotation Zrotation
						JOINT Bip01_L_Calf
						{
							OFFSET 5.631535 -22.906792 -0.862625
							CHANNELS 3 Xrotation Yrotation Zrotation
							JOINT Bip01_L_HorseLink
							{
								OFFSET -16.984318 -19.231949 3.555875
								CHANNELS 3 Xrotation Yrotation Zrotation
								JOINT Bip01_L_Foot
								{
									OFFSET 4.290367 -24.783169 -0.577965
									CHANNELS 3 Xrotation Yrotation Zrotation
									JOINT Bip01_L_Toe0
									{
										OFFSET 3.561245 -5.815111 -0.760799
										CHANNELS 3 Xrotation Yrotation Zrotation
										JOINT Bip01_L_Toe0Nub
										{
											OFFSET 6.574303 -0.000005 -1.538561
											CHANNELS 3 Xrotation Yrotation Zrotation
											End Site
											{
												OFFSET 0.000004 -6.751935 0.000023
											}
										}
									}
								}
							}
						}
					}
					JOINT Bip01_Spine1
					{
						OFFSET 20.556803 -4.626213 -0.000025
						CHANNELS 3 Xrotation Yrotation Zrotation
						JOINT Saddle
						{
							OFFSET 17.608810 18.174690 -0.000143
							CHANNELS 3 Xrotation Yrotation Zrotation
							End Site
							{
								OFFSET -0.000063 -0.000061 -22.448387
							}
						}
						JOINT BN_center
						{
							OFFSET 10.743275 -13.417107 -0.172041
							CHANNELS 3 Xrotation Yrotation Zrotation
							End Site
							{
								OFFSET 22.434088 0.553078 -0.579614
							}
						}
						JOINT Bip01_Spine2
						{
							OFFSET 24.765072 -2.054115 -0.000032
							CHANNELS 3 Xrotation Yrotation Zrotation
							JOINT Handle
							{
								OFFSET 63.735676 16.430748 -16.052464
								CHANNELS 3 Xrotation Yrotation Zrotation
								JOINT IK_Chain01
								{
									OFFSET -4.713058 -6.020439 0.185448
									CHANNELS 3 Xrotation Yrotation Zrotation
									End Site
									{
										OFFSET -0.000023 -0.000023 -7.648071
									}
								}
							}
							JOINT BN_hair04_01
							{
								OFFSET 1.987491 16.256981 -2.049672
								CHANNELS 3 Xrotation Yrotation Zrotation
								JOINT BN_hair04_02
								{
									OFFSET -1.318762 -3.831451 -6.174704
									CHANNELS 3 Xrotation Yrotation Zrotation
									JOINT BN_hair04_03
									{
										OFFSET -0.827490 -5.886627 -5.656666
										CHANNELS 3 Xrotation Yrotation Zrotation
										End Site
										{
											OFFSET -2.658262 5.010620 -5.929780
										}
									}
								}
							}
							JOINT Bip01_Neck
							{
								OFFSET 25.574577 9.433014 -0.000084
								CHANNELS 3 Xrotation Yrotation Zrotation
								JOINT Bip01_R_Clavicle
								{
									OFFSET -16.535652 0.011192 6.705692
									CHANNELS 3 Xrotation Yrotation Zrotation
									JOINT Bip01_R_UpperArm
									{
										OFFSET 20.272621 -12.959984 2.510816
										CHANNELS 3 Xrotation Yrotation Zrotation
										JOINT Bip01_R_Forearm
										{
											OFFSET -13.633509 -15.503704 -0.653585
											CHANNELS 3 Xrotation Yrotation Zrotation
											JOINT Bip01_R_Hand
											{
												OFFSET 2.580030 -27.804676 -1.136415
												CHANNELS 3 Xrotation Yrotation Zrotation
												JOINT Bip01_R_Finger0
												{
													OFFSET -0.281744 -19.659061 -0.398649
													CHANNELS 3 Xrotation Yrotation Zrotation
													JOINT Bip01_Xtra02
													{
														OFFSET 4.152210 -5.712314 0.433813
														CHANNELS 3 Xrotation Yrotation Zrotation
														JOINT Bip01_Xtra02Nub
														{
															OFFSET 15.457960 0.041654 0.507982
															CHANNELS 3 Xrotation Yrotation Zrotation
															End Site
															{
																OFFSET -15.421730 -0.157725 -1.163459
															}
														}
													}
													JOINT Bip01_R_Finger0Nub
													{
														OFFSET 8.362326 -9.718440 -0.143142
														CHANNELS 3 Xrotation Yrotation Zrotation
														End Site
														{
															OFFSET -1.213036 -0.198171 9.872291
														}
													}
												}
											}
										}
									}
								}
								JOINT Bip01_L_Clavicle
								{
									OFFSET -16.535673 0.011162 -6.705583
									CHANNELS 3 Xrotation Yrotation Zrotation
									JOINT Bip01_L_UpperArm
									{
										OFFSET 20.272615 -12.959999 -2.510836
										CHANNELS 3 Xrotation Yrotation Zrotation
										JOINT Bip01_L_Forearm
										{
											OFFSET -13.633495 -15.503681 0.653678
											CHANNELS 3 Xrotation Yrotation Zrotation
											JOINT Bip01_L_Hand
											{
												OFFSET 2.579988 -27.804686 1.136487
												CHANNELS 3 Xrotation Yrotation Zrotation
												JOINT Bip01_L_Finger0
												{
													OFFSET -0.281765 -19.659058 0.398696
													CHANNELS 3 Xrotation Yrotation Zrotation
													JOINT Bip01_Xtra01
													{
														OFFSET 4.083549 -5.738758 -0.666714
														CHANNELS 3 Xrotation Yrotation Zrotation
														JOINT Bip01_Xtra01Nub
														{
															OFFSET 6.758158 -0.395525 -0.023239
															CHANNELS 3 Xrotation Yrotation Zrotation
															End Site
															{
																OFFSET 6.764923 -0.254147 -0.029908
															}
														}
													}
													JOINT Bip01_L_Finger0Nub
													{
														OFFSET -0.012636 -9.629153 0.045740
														CHANNELS 3 Xrotation Yrotation Zrotation
														End Site
														{
															OFFSET 0.988407 0.004791 8.293357
														}
													}
												}
											}
										}
									}
								}
								JOINT BN_hair03_01
								{
									OFFSET -5.894140 16.270622 -2.498433
									CHANNELS 3 Xrotation Yrotation Zrotation
									JOINT BN_hair03_02
									{
										OFFSET -0.189278 -7.800507 -6.219162
										CHANNELS 3 Xrotation Yrotation Zrotation
										JOINT BN_hair03_03
										{
											OFFSET 0.612345 -10.844475 -3.370718
											CHANNELS 3 Xrotation Yrotation Zrotation
											End Site
											{
												OFFSET -2.273296 2.862007 -10.769416
											}
										}
									}
								}
								JOINT Bip01_Neck1
								{
									OFFSET 9.383755 11.908699 -0.000007
									CHANNELS 3 Xrotation Yrotation Zrotation
									JOINT BN_hair02_01
									{
										OFFSET 9.126320 18.808022 -1.420810
										CHANNELS 3 Xrotation Yrotation Zrotation
										JOINT BN_hair02_02
										{
											OFFSET 0.393478 -5.181091 -5.248574
											CHANNELS 3 Xrotation Yrotation Zrotation
											JOINT BN_hair02_03
											{
												OFFSET 0.762280 -8.167076 -0.230047
												CHANNELS 3 Xrotation Yrotation Zrotation
												End Site
												{
													OFFSET -0.025837 -1.251419 -8.109770
												}
											}
										}
									}
									JOINT Bip01_Head
									{
										OFFSET 14.266129 10.475403 -0.000008
										CHANNELS 3 Xrotation Yrotation Zrotation
										JOINT BN_Reins_01
										{
											OFFSET 18.547455 -15.740112 -0.000035
											CHANNELS 3 Xrotation Yrotation Zrotation
											JOINT BN_Reins_02
											{
												OFFSET -5.372810 -5.884506 0.000028
												CHANNELS 3 Xrotation Yrotation Zrotation
												JOINT BN_Reins_03
												{
													OFFSET -6.395866 -15.947449 0.000070
													CHANNELS 3 Xrotation Yrotation Zrotation
													JOINT BN_Halter_R_01
													{
														OFFSET -1.234055 -3.096100 7.096737
														CHANNELS 3 Xrotation Yrotation Zrotation
														End Site
														{
															OFFSET 10.514435 -4.176861 -0.000004
														}
													}
													JOINT BN_Halter_L_01
													{
														OFFSET -1.234062 -3.096146 -7.096726
														CHANNELS 3 Xrotation Yrotation Zrotation
														End Site
														{
															OFFSET -10.514435 4.176865 -0.000000
														}
													}
													JOINT BN_Reins_04
													{
														OFFSET -6.737644 -16.971684 0.000074
														CHANNELS 3 Xrotation Yrotation Zrotation
														JOINT BN_Halter_R_02
														{
															OFFSET -4.688869 -11.781956 7.096771
															CHANNELS 3 Xrotation Yrotation Zrotation
															End Site
															{
																OFFSET 14.669624 -5.827511 -0.000006
															}
														}
														JOINT BN_Halter_L_02
														{
															OFFSET -4.688892 -11.782017 -7.096693
															CHANNELS 3 Xrotation Yrotation Zrotation
															End Site
															{
																OFFSET -14.669624 5.827507 -0.000002
															}
														}
														JOINT BN_Reins_05
														{
															OFFSET -6.822578 -16.971161 0.000074
															CHANNELS 3 Xrotation Yrotation Zrotation
															JOINT BN_Reins_06
															{
																OFFSET -6.140354 -15.095148 0.000066
																CHANNELS 3 Xrotation Yrotation Zrotation
																End Site
																{
																	OFFSET -15.095150 6.140352 -0.000002
																}
															}
														}
													}
												}
											}
										}
										JOINT BN_hair01_01
										{
											OFFSET 8.957344 8.870956 0.112121
											CHANNELS 3 Xrotation Yrotation Zrotation
											JOINT BN_hair01_02
											{
												OFFSET 6.002075 -2.962952 -3.121264
												CHANNELS 3 Xrotation Yrotation Zrotation
												End Site
												{
													OFFSET 5.917702 3.813591 -2.232396
												}
											}
										}
										JOINT BN_Eyebrow_R
										{
											OFFSET 11.795959 -0.430496 4.449781
											CHANNELS 3 Xrotation Yrotation Zrotation
											JOINT Bip01_Xtra06Nub
											{
												OFFSET 2.936661 -0.262573 3.246701
												CHANNELS 3 Xrotation Yrotation Zrotation
												End Site
												{
													OFFSET 2.768745 0.208199 3.394807
												}
											}
										}
										JOINT BN_Eyebrow_L
										{
											OFFSET 11.586395 -0.445618 -4.441728
											CHANNELS 3 Xrotation Yrotation Zrotation
											JOINT Bip01_Xtra05Nub
											{
												OFFSET 3.244698 -0.349442 -4.416700
												CHANNELS 3 Xrotation Yrotation Zrotation
												End Site
												{
													OFFSET 3.053162 0.072495 -4.564033
												}
											}
										}
										JOINT Bip01_R_Ear_01
										{
											OFFSET 7.142960 7.567184 4.311657
											CHANNELS 3 Xrotation Yrotation Zrotation
											JOINT Bip01_Xtra04Nub
											{
												OFFSET 9.464531 9.264214 1.682953
												CHANNELS 3 Xrotation Yrotation Zrotation
												End Site
												{
													OFFSET 8.448181 10.159340 1.910823
												}
											}
										}
										JOINT Bip01__L_Ear_01
										{
											OFFSET 7.214943 7.717056 -4.356771
											CHANNELS 3 Xrotation Yrotation Zrotation
											JOINT Bip01_Xtra03Nub
											{
												OFFSET 9.230225 8.944366 -2.322746
												CHANNELS 3 Xrotation Yrotation Zrotation
												End Site
												{
													OFFSET 8.170288 9.841324 -2.643566
												}
											}
										}
										JOINT Bip01_Jaw
										{
											OFFSET 9.196068 -4.110695 -0.000013
											CHANNELS 3 Xrotation Yrotation Zrotation
											JOINT Bip01_Ponytail1Nub
											{
												OFFSET 10.976463 -21.082108 -0.000053
												CHANNELS 3 Xrotation Yrotation Zrotation
												End Site
												{
													OFFSET 11.247093 -20.938980 0.000113
												}
											}
										}
										JOINT Bip01_HeadNub
										{
											OFFSET 29.954575 -18.249489 -0.000063
											CHANNELS 3 Xrotation Yrotation Zrotation
											End Site
											{
												OFFSET -9.198448 -13.366348 0.000168
											}
										}
									}
								}
							}
						}
					}
				}
			}
		}
	}
}
MOTION
Frames: 4
Frame Time: 0.033333
0.000000 0.000000 0.000000 0.000008 0.000000 -0.000000 -0.000000 0.000000 -0.000000 -0.030073 -1.997909 -0.873219 0.003491 0.000000 -0.000008 2.490268 -2.052176 38.057339 0.122413 -0.319543 23.183610 -0.264685 0.672097 18.335235 -0.250525 1.429658 8.407997 -0.077032 1.792565 0.347453 0.188866 0.989328 4.708707 -0.549047 11.327472 1.499598 0.710435 0.016571 -3.600298 1.817461 -0.046713 -9.218990 0.005665 -10.440015 7.765032 0.000729 -0.000020 -0.003715 0.000101 -0.000138 0.000004 -1.482140 -9.974767 -5.465680 0.137292 0.008364 0.696708 -2.612785 0.160117 -13.287734 0.324647 11.281695 14.325162 -0.000871 0.000006 -0.003712 0.008674 -0.000374 0.038616 0.119445 0.980781 -3.268229 0.917530 -0.020778 6.784382 -0.003569 -0.188671 0.020278 0.046598 0.968706 -2.738189 0.000078 -0.000112 -0.000055 -0.000045 -0.014955 0.015042 2.586093 0.486215 -0.860317 2.164859 0.333524 -0.683264 5.502397 0.825338 -1.794929 1.647461 -1.257478 -5.213291 0.138936 1.717664 6.348464 -5.504139 -4.790366 7.348343 0.012096 0.173985 -4.253293 7.829369 2.444210 -0.221270 -4.304852 4.320583 -2.303701 -0.004997 -0.003857 0.005722 -0.802192 0.160631 -0.479873 -0.804184 0.123479 -0.482624 -3.312803 0.806981 4.950344 4.736870 -0.552708 5.774722 -0.000525 -0.014428 -0.352247 -6.486397 2.302563 -1.749641 2.565140 -5.569913 -1.494710 -0.003803 0.003226 -0.002349 0.036621 0.063819 2.451861 -0.000913 0.100573 2.451955 3.753747 0.408868 -0.664853 0.180335 0.040144 -0.039225 0.365180 0.050393 -0.143083 -2.153291 1.227663 -6.809127 4.521451 0.452751 -0.109476 0.032887 0.001587 0.029275 1.107030 0.091621 -0.089828 -0.533802 0.201136 -5.651392 -0.000030 0.000324 33.480078 -0.441787 -0.458728 -72.796108 -0.000060 -0.000072 -21.993988 0.000020 -0.000008 -0.026805 0.000002 -0.000016 0.012747 -0.000096 -0.000109 -34.639871 0.000036 0.000015 0.015163 0.000025 -0.000010 0.012721 -0.000048 -0.000055 -24.223450 0.000013 -0.000013 -0.000050 1.146987 2.856924 2.039562 0.760992 -0.149093 1.574614 -12.810637 -1.803862 -16.140985 0.024221 -0.030022 11.786592 9.655032 0.978691 -14.662664 0.023213 -0.032305 11.715995 -0.003757 0.001479 -0.000270 0.022921 0.006888 11.753047 0.000899 -0.000263 -0.001560 0.022875 0.006720 11.747206 -0.000019 -0.000231 0.000065 -0.004504 -0.052579 11.750674 0.000071 -0.000033 11.750683 
0.000000 0.000000 0.000000 0.000008 0.000000 -0.000000 -0.000000 0.000000 -0.000000 -0.030369 -1.997886 -0.890338 0.004396 0.000000 -0.000001 2.654479 -2.182772 38.093908 -0.047459 0.129947 23.253328 -0.260808 0.722014 18.342936 -0.185758 1.286698 8.344738 0.043271 1.619292 0.237318 0.183272 0.918895 4.709360 -0.558416 11.387867 1.620596 0.776156 0.015846 -3.933231 1.775583 -0.042330 -9.005738 -0.002945 -10.441712 7.736014 0.000729 -0.000022 -0.003715 0.000101 -0.000138 0.000004 -1.457165 -9.945986 -5.358411 0.069733 0.004040 0.353807 -2.560737 0.150924 -13.020154 0.313931 11.321946 14.273384 -0.000871 0.000006 -0.003712 0.008674 -0.000374 0.038616 0.133130 1.049253 -3.388620 0.917530 -0.020778 6.784383 -0.003585 -0.188672 0.020278 0.109930 0.905859 -3.421944 0.000078 -0.000112 -0.000055 -0.000045 -0.014955 0.015042 2.338345 0.450155 -0.780994 2.133328 0.328863 -0.673239 5.336610 0.804011 -1.740925 1.599291 -1.333418 -5.707920 0.172764 1.881320 7.315829 -5.690553 -4.716191 5.277545 0.000956 0.025160 -0.613967 7.880788 2.336268 -2.419432 -3.980318 4.356882 -3.903872 -0.004952 -0.003783 0.005719 -0.802255 0.160631 -0.479878 -0.804184 0.123479 -0.482624 -3.252537 0.751773 6.105989 4.701211 -0.584650 4.780623 0.000862 0.035291 0.860366 -6.416068 2.339285 -1.450204 2.443095 -5.579629 -1.832751 -0.003683 0.003254 -0.002358 0.036684 0.063820 2.451880 -0.000913 0.100574 2.451955 3.795314 0.050131 -0.233817 0.196696 0.030341 0.005211 0.205594 -0.053299 -0.002857 -2.022867 1.158696 -7.069157 4.715125 0.192705 0.118334 0.058911 0.006292 0.043954 1.010623 0.095996 -0.070815 -0.713042 0.373032 -4.601573 -0.000029 0.000324 33.480081 -0.441787 -0.458728 -72.796108 -0.000060 -0.000072 -21.993986 0.000020 -0.000008 -0.026807 0.000002 -0.000016 0.012745 -0.000096 -0.000109 -34.639875 0.000036 0.000015 0.015161 0.000025 -0.000010 0.012716 -0.000048 -0.000055 -24.223455 0.000013 -0.000013 -0.000046 1.108772 2.420087 2.337912 1.041958 -0.015175 1.635065 -12.810638 -1.803863 -16.140990 0.024234 -0.030007 11.786659 9.655031 0.978691 -14.662669 0.023268 -0.032300 11.715959 -0.060350 -0.109857 0.857847 0.022949 0.006943 11.753050 0.083154 0.154755 0.846456 0.022903 0.006773 11.747194 0.026085 -0.023223 0.127930 -0.004464 -0.052627 11.750712 0.000072 -0.000033 11.750675 
0.000000 0.000000 0.000000 0.000008 0.000000 -0.000000 -0.000000 0.000000 -0.000000 -0.031158 -1.997868 -0.936449 0.026626 0.013167 0.101940 2.819061 -2.314673 38.130241 -0.183523 0.433283 23.391277 -0.335787 0.980939 18.363594 -0.147733 1.271610 8.264429 0.160031 1.446346 0.133127 0.167676 0.815651 4.721903 -0.557414 11.452179 1.832430 0.859650 0.014377 -4.356244 1.734033 -0.038136 -8.794231 -0.017259 -10.444321 7.714605 0.000729 -0.000020 -0.003715 0.000101 -0.000138 0.000004 -1.404743 -9.905703 -5.163730 -0.014351 -0.000777 -0.072795 -2.509727 0.142157 -12.758117 0.300738 11.362801 14.225338 -0.000871 0.000006 -0.003712 0.008674 -0.000375 0.038616 0.147625 1.139894 -3.544751 0.917530 -0.020778 6.784380 -0.003661 -0.188646 0.020292 0.187900 0.823224 -4.284172 0.000078 -0.000112 -0.000056 -0.000045 -0.014955 0.015042 2.066672 0.410223 -0.694064 2.046710 0.316014 -0.645695 5.175111 0.783082 -1.688371 1.547932 -1.419376 -6.297048 0.230368 2.127662 8.761525 -6.053640 -4.611250 2.371491 0.000414 -0.163191 3.979494 7.962238 2.156026 -5.685987 -3.392438 4.412810 -6.863237 -0.004959 -0.003851 0.005719 -0.802360 0.160631 -0.479885 -0.804184 0.123478 -0.482625 -3.185044 0.664528 7.638043 4.670479 -0.630719 3.484187 0.001165 0.090922 2.216680 -6.328647 2.393536 -0.878458 2.265953 -5.587571 -2.311684 -0.003705 0.003308 -0.002349 0.036789 0.063820 2.451859 -0.000913 0.100572 2.451955 3.846111 -0.309427 0.200685 0.234645 -0.006560 0.129810 0.050368 -0.154694 0.133503 -1.852983 1.062501 -7.371548 4.906994 -0.060826 0.342170 0.110402 0.015873 0.092798 0.750450 0.108565 -0.005533 -0.957004 0.583887 -3.307212 -0.000029 0.000324 33.480074 -0.441787 -0.458728 -72.796108 -0.000060 -0.000072 -21.993989 0.000020 -0.000008 -0.026807 0.000002 -0.000016 0.012747 -0.000096 -0.000109 -34.639875 0.000036 0.000015 0.015160 0.000025 -0.000010 0.012714 -0.000048 -0.000055 -24.223450 0.000013 -0.000013 -0.000048 1.075191 1.980198 2.638448 1.315560 0.115575 1.693322 -12.810638 -1.803860 -16.140992 0.024326 -0.029991 11.786725 9.655031 0.978689 -14.662668 0.023298 -0.032278 11.715855 -0.117902 -0.225937 1.753946 0.022997 0.007035 11.753073 0.166176 0.316952 1.729025 0.022963 0.006858 11.747176 0.058551 -0.035652 0.301215 -0.004396 -0.052708 11.750676 0.000072 -0.000033 11.750670 
0.000000 0.000000 0.000000 0.000008 0.000000 -0.000000 -0.000000 0.000000 -0.000000 -0.031391 -1.997860 -1.012823 0.040461 0.040363 0.174535 2.988542 -2.450958 38.167579 -0.281229 0.656595 23.551886 -0.432134 1.289723 18.432532 -0.148848 1.443995 8.199318 0.283742 1.456733 -0.104227 0.141392 0.680798 4.738810 -0.598332 11.570465 2.134434 0.961055 0.011763 -4.870085 1.691898 -0.034043 -8.579828 -0.047690 -10.449530 7.708793 0.000729 -0.000019 -0.003715 0.000101 -0.000138 0.000004 -1.325049 -9.853873 -4.882792 -0.116436 -0.005778 -0.590507 -2.455787 0.133150 -12.481251 0.262938 11.418392 14.197539 -0.000871 0.000007 -0.003712 0.008674 -0.000376 0.038616 0.171599 1.254834 -3.735338 0.917530 -0.020778 6.784381 -0.003556 -0.188671 0.020278 0.284060 0.718585 -5.333566 0.000078 -0.000112 -0.000056 -0.000045 -0.014955 0.015042 1.780702 0.367746 -0.602772 1.895250 0.293430 -0.597561 5.011531 0.761731 -1.635188 1.496016 -1.523066 -6.992054 0.291833 2.440858 10.612213 -6.528398 -4.485713 -1.060856 0.017760 -0.373785 9.133237 8.042386 1.932761 -9.648766 -2.591717 4.433326 -10.865549 -0.005084 -0.003934 0.005706 -0.802233 0.160644 -0.479848 -0.804184 0.123479 -0.482623 -3.093868 0.541934 9.551852 4.641454 -0.697210 1.902565 -0.000077 0.153818 3.750377 -6.220635 2.460964 -0.064626 2.036991 -5.597072 -2.928824 -0.003793 0.003348 -0.002338 0.036659 0.063820 2.451859 -0.000913 0.100573 2.451955 3.908563 -0.681857 0.652859 0.300221 -0.067007 0.334056 -0.106621 -0.257786 0.271363 -1.645209 0.940403 -7.718300 5.121130 -0.324942 0.578635 0.187482 0.027409 0.173480 0.315152 0.131863 0.104841 -1.273543 0.833496 -1.740974 -0.000029 0.000324 33.480074 -0.441787 -0.458728 -72.796108 -0.000060 -0.000072 -21.993988 0.000020 -0.000008 -0.026803 0.000002 -0.000016 0.012749 -0.000096 -0.000109 -34.639871 0.000036 0.000015 0.015158 0.000025 -0.000010 0.012714 -0.000048 -0.000055 -24.223454 0.000013 -0.000013 -0.000046 1.047044 1.507517 2.962553 1.592562 0.248300 1.751687 -12.810636 -1.803863 -16.140994 0.024248 -0.030037 11.786624 9.655014 0.978658 -14.662669 0.023239 -0.032324 11.715976 -0.176643 -0.348420 2.696979 0.022939 0.006921 11.753045 0.251969 0.491472 2.671110 0.022904 0.006747 11.747200 0.102135 -0.031380 0.528702 -0.004500 -0.052627 11.750669 0.000072 -0.000033 11.750675 
